<?xml version="1.0" encoding="UTF-8" standalone="no"?>
<svg
   id="Layer_1"
   data-name="Layer 1"
   viewBox="0 0 256 256"
   version="1.1"
   sodipodi:docname="ubuntu.svg"
   inkscape:version="1.3 (1:1.3+202307231459+0e150ed6c4)"
   inkscape:export-filename="ubuntu-1.svg"
   inkscape:export-xdpi="96"
   inkscape:export-ydpi="96"
   width="256"
   height="256"
   xmlns:inkscape="http://www.inkscape.org/namespaces/inkscape"
   xmlns:sodipodi="http://sodipodi.sourceforge.net/DTD/sodipodi-0.dtd"
   xmlns="http://www.w3.org/2000/svg"
   xmlns:svg="http://www.w3.org/2000/svg">
  <sodipodi:namedview
     id="namedview19"
     pagecolor="#ffffff"
     bordercolor="#000000"
     borderopacity="0.25"
     inkscape:showpageshadow="2"
     inkscape:pageopacity="0.0"
     inkscape:pagecheckerboard="0"
     inkscape:deskcolor="#d1d1d1"
     inkscape:zoom="1.2016381"
     inkscape:cx="272.12852"
     inkscape:cy="162.27847"
     inkscape:window-width="1328"
     inkscape:window-height="704"
     inkscape:window-x="38"
     inkscape:window-y="27"
     inkscape:window-maximized="1"
     inkscape:current-layer="Layer_1" />
  <defs
     id="defs1">
    <style
       id="style1">&#10;      .cls-1 {&#10;        fill: none;&#10;      }&#10;&#10;      .cls-2 {&#10;        fill: #e95420;&#10;      }&#10;&#10;      .cls-3 {&#10;        fill: #fff;&#10;      }&#10;    </style>
  </defs>
  <g
     id="g19"
     transform="matrix(1.007874,0,0,1.007874,-0.00504429,-140.23056)">
    <rect
       class="cls-2"
       width="254"
       height="254"
       id="rect15"
       x="0.0050048828"
       y="139.13501"
       style="stroke-width:0.796775" />
    <rect
       class="cls-1"
       x="30.25"
       y="169.38"
       width="193.57001"
       height="193.57001"
       id="rect16" />
    <circle
       class="cls-3"
       cx="58.09"
       cy="255.92"
       r="26.299999"
       id="circle16" />
    <circle
       class="cls-3"
       cx="167.63"
       cy="198.25"
       r="26.299999"
       id="circle17" />
    <path
       class="cls-3"
       d="M 117.41,323.62 C 98.46,319.56 82.63,307.46 73.73,290.3 c -7.01,3.19 -14.9,4.16 -22.49,2.76 10.77,26.45 33.61,45.66 61.65,51.67 6.15,1.32 12.42,1.96 18.68,1.92 -4.83,-6.35 -7.52,-14.01 -7.7,-21.99 -2.17,-0.24 -4.33,-0.59 -6.45,-1.05 z"
       id="path17" />
    <circle
       class="cls-3"
       cx="161.71001"
       cy="323.76001"
       r="26.299999"
       id="circle18" />
    <path
       class="cls-3"
       d="m 198.31,314.1 c 8.18,-10.31 13.94,-22.5 16.71,-35.45 4.84,-22.59 0.32,-46.29 -12.4,-65.51 -3.03,7.14 -8.17,13.17 -14.79,17.32 7.1,13.38 9.26,28.82 6.08,43.67 -1.56,7.27 -4.31,14.12 -8.18,20.38 6.19,5.08 10.56,11.91 12.59,19.6 z"
       id="path18" />
    <path
       class="cls-3"
       d="m 56.06,218.2 c 0.67,-0.04 1.34,-0.05 2,-0.05 2.66,0 5.31,0.28 7.94,0.85 4.29,0.92 8.32,2.54 12.01,4.84 11.84,-17.03 30.95,-27.25 51.65,-27.63 0.11,-1.99 0.38,-3.97 0.79,-5.92 1.21,-5.63 3.67,-10.9 7.19,-15.41 -33.08,-2.62 -65.22,14.45 -81.59,43.33 z"
       id="path19" />
  </g>
</svg>
